%TF.GenerationSoftware,KiCad,Pcbnew,9.0.4*%
%TF.CreationDate,2025-09-19T10:35:46-04:00*%
%TF.ProjectId,tf_chess,74665f63-6865-4737-932e-6b696361645f,rev?*%
%TF.SameCoordinates,Original*%
%TF.FileFunction,Soldermask,Bot*%
%TF.FilePolarity,Negative*%
%FSLAX46Y46*%
G04 Gerber Fmt 4.6, Leading zero omitted, Abs format (unit mm)*
G04 Created by KiCad (PCBNEW 9.0.4) date 2025-09-19 10:35:46*
%MOMM*%
%LPD*%
G01*
G04 APERTURE LIST*
G04 APERTURE END LIST*
G36*
X349500000Y104000000D02*
G01*
X406500000Y104000000D01*
X406500000Y47000000D01*
X349500000Y47000000D01*
X349500000Y104000000D01*
G37*
G36*
X235500000Y104000000D02*
G01*
X292500000Y104000000D01*
X292500000Y47000000D01*
X235500000Y47000000D01*
X235500000Y104000000D01*
G37*
G36*
X121500000Y104000000D02*
G01*
X178500000Y104000000D01*
X178500000Y47000000D01*
X121500000Y47000000D01*
X121500000Y104000000D01*
G37*
G36*
X64500000Y47000000D02*
G01*
X121500000Y47000000D01*
X121500000Y-10000000D01*
X64500000Y-10000000D01*
X64500000Y47000000D01*
G37*
G36*
X235500000Y-10000000D02*
G01*
X292500000Y-10000000D01*
X292500000Y-67000000D01*
X235500000Y-67000000D01*
X235500000Y-10000000D01*
G37*
G36*
X292500000Y47000000D02*
G01*
X349500000Y47000000D01*
X349500000Y-10000000D01*
X292500000Y-10000000D01*
X292500000Y47000000D01*
G37*
G36*
X178500000Y47000000D02*
G01*
X235500000Y47000000D01*
X235500000Y-10000000D01*
X178500000Y-10000000D01*
X178500000Y47000000D01*
G37*
G36*
X349500000Y-10000000D02*
G01*
X406500000Y-10000000D01*
X406500000Y-67000000D01*
X349500000Y-67000000D01*
X349500000Y-10000000D01*
G37*
G36*
X7500000Y104000000D02*
G01*
X64500000Y104000000D01*
X64500000Y47000000D01*
X7500000Y47000000D01*
X7500000Y104000000D01*
G37*
G36*
X-49500000Y47000000D02*
G01*
X7500000Y47000000D01*
X7500000Y-10000000D01*
X-49500000Y-10000000D01*
X-49500000Y47000000D01*
G37*
G36*
X121500000Y-10000000D02*
G01*
X178500000Y-10000000D01*
X178500000Y-67000000D01*
X121500000Y-67000000D01*
X121500000Y-10000000D01*
G37*
G36*
X292500000Y-67000000D02*
G01*
X349500000Y-67000000D01*
X349500000Y-124000000D01*
X292500000Y-124000000D01*
X292500000Y-67000000D01*
G37*
G36*
X7500000Y-10000000D02*
G01*
X64500000Y-10000000D01*
X64500000Y-67000000D01*
X7500000Y-67000000D01*
X7500000Y-10000000D01*
G37*
G36*
X64500000Y-67000000D02*
G01*
X121500000Y-67000000D01*
X121500000Y-124000000D01*
X64500000Y-124000000D01*
X64500000Y-67000000D01*
G37*
G36*
X178500000Y-67000000D02*
G01*
X235500000Y-67000000D01*
X235500000Y-124000000D01*
X178500000Y-124000000D01*
X178500000Y-67000000D01*
G37*
G36*
X-49500000Y-67000000D02*
G01*
X7500000Y-67000000D01*
X7500000Y-124000000D01*
X-49500000Y-124000000D01*
X-49500000Y-67000000D01*
G37*
G36*
X349500000Y-124000000D02*
G01*
X406500000Y-124000000D01*
X406500000Y-181000000D01*
X349500000Y-181000000D01*
X349500000Y-124000000D01*
G37*
G36*
X235500000Y-124000000D02*
G01*
X292500000Y-124000000D01*
X292500000Y-181000000D01*
X235500000Y-181000000D01*
X235500000Y-124000000D01*
G37*
G36*
X292500000Y-181000000D02*
G01*
X349500000Y-181000000D01*
X349500000Y-238000000D01*
X292500000Y-238000000D01*
X292500000Y-181000000D01*
G37*
G36*
X-49500000Y-181000000D02*
G01*
X7500000Y-181000000D01*
X7500000Y-238000000D01*
X-49500000Y-238000000D01*
X-49500000Y-181000000D01*
G37*
G36*
X64500000Y-181000000D02*
G01*
X121500000Y-181000000D01*
X121500000Y-238000000D01*
X64500000Y-238000000D01*
X64500000Y-181000000D01*
G37*
G36*
X121500000Y-124000000D02*
G01*
X178500000Y-124000000D01*
X178500000Y-181000000D01*
X121500000Y-181000000D01*
X121500000Y-124000000D01*
G37*
G36*
X178500000Y-181000000D02*
G01*
X235500000Y-181000000D01*
X235500000Y-238000000D01*
X178500000Y-238000000D01*
X178500000Y-181000000D01*
G37*
G36*
X7500000Y-124000000D02*
G01*
X64500000Y-124000000D01*
X64500000Y-181000000D01*
X7500000Y-181000000D01*
X7500000Y-124000000D01*
G37*
G36*
X349500000Y-238000000D02*
G01*
X406500000Y-238000000D01*
X406500000Y-295000000D01*
X349500000Y-295000000D01*
X349500000Y-238000000D01*
G37*
G36*
X121500000Y-238000000D02*
G01*
X178500000Y-238000000D01*
X178500000Y-295000000D01*
X121500000Y-295000000D01*
X121500000Y-238000000D01*
G37*
G36*
X7500000Y-238000000D02*
G01*
X64500000Y-238000000D01*
X64500000Y-295000000D01*
X7500000Y-295000000D01*
X7500000Y-238000000D01*
G37*
G36*
X235500000Y-238000000D02*
G01*
X292500000Y-238000000D01*
X292500000Y-295000000D01*
X235500000Y-295000000D01*
X235500000Y-238000000D01*
G37*
G36*
X292500000Y-295000000D02*
G01*
X349500000Y-295000000D01*
X349500000Y-352000000D01*
X292500000Y-352000000D01*
X292500000Y-295000000D01*
G37*
G36*
X178500000Y-295000000D02*
G01*
X235500000Y-295000000D01*
X235500000Y-352000000D01*
X178500000Y-352000000D01*
X178500000Y-295000000D01*
G37*
G36*
X64500000Y-295000000D02*
G01*
X121500000Y-295000000D01*
X121500000Y-352000000D01*
X64500000Y-352000000D01*
X64500000Y-295000000D01*
G37*
G36*
X-49500000Y-295000000D02*
G01*
X7500000Y-295000000D01*
X7500000Y-352000000D01*
X-49500000Y-352000000D01*
X-49500000Y-295000000D01*
G37*
M02*
